<?xml version="1.0" standalone="no"?>
<!DOCTYPE svg PUBLIC "-//W3C//DTD SVG 20010904//EN"
 "http://www.w3.org/TR/2001/REC-SVG-20010904/DTD/svg10.dtd">
<svg version="1.0" xmlns="http://www.w3.org/2000/svg"
 width="350.000000pt" height="350.000000pt" viewBox="0 0 350.000000 350.000000"
 preserveAspectRatio="xMidYMid meet">

<g transform="translate(0.000000,350.000000) scale(0.100000,-0.100000)"
fill="#000000" stroke="none">
<path d="M1553 3489 c-649 -76 -1198 -502 -1436 -1114 -51 -130 -118 -417
-102 -433 3 -3 5 2 5 10 0 9 8 22 17 29 15 12 16 12 9 -6 -17 -42 -17 -52 -1
-59 9 -3 25 -1 36 4 23 13 59 -3 59 -25 0 -20 59 -85 79 -86 10 0 11 -2 4 -6
-7 -2 -13 -11 -13 -19 0 -10 13 -14 49 -14 48 0 108 -15 126 -32 6 -6 3 -7 -7
-3 -10 4 -18 3 -18 -3 0 -6 6 -12 13 -15 10 -4 10 -7 0 -18 -7 -7 -13 -23 -13
-35 0 -11 -11 -38 -25 -58 -22 -32 -25 -48 -27 -147 l-3 -112 -48 -1 c-45 -1
-47 0 -47 27 0 15 -4 27 -10 27 -5 0 -10 -13 -10 -30 0 -21 -4 -28 -14 -24
-23 9 -27 -12 -6 -31 11 -10 20 -14 20 -10 0 5 6 1 13 -9 11 -16 34 -17 245
-16 l232 1 0 -91 0 -90 -28 0 c-15 0 -34 6 -41 13 -11 10 -13 9 -7 -1 8 -13 0
-14 -106 -12 -55 1 -68 -2 -68 -14 0 -8 -5 -18 -12 -22 -7 -5 -8 -3 -3 6 4 7
2 16 -6 21 -22 14 -93 10 -115 -6 -24 -18 -34 -19 -34 -1 0 20 -119 144 -120
125 0 -9 -7 -19 -15 -23 -17 -6 -21 9 -5 19 15 10 12 22 -12 45 l-22 20 24 25
c13 14 21 27 18 30 -2 3 -17 -9 -33 -25 l-29 -31 28 -82 c151 -444 475 -809
898 -1012 266 -128 541 -184 828 -172 393 18 750 155 1050 404 550 456 765
1213 540 1896 -42 128 -157 354 -237 467 -87 122 -281 316 -403 403 -113 80
-339 195 -467 237 -235 77 -512 107 -750 79z m517 -659 c0 -5 -2 -10 -4 -10
-3 0 -8 5 -11 10 -3 6 -1 10 4 10 6 0 11 -4 11 -10z m-228 -170 c16 0 18 -3
10 -13 -7 -8 -25 -11 -47 -9 -30 4 -34 7 -24 19 7 7 19 11 26 8 8 -3 24 -5 35
-5z m-1374 -107 c24 -75 20 -94 -13 -63 -21 20 -55 19 -55 -1 0 -5 -7 -9 -15
-9 -8 0 -15 4 -15 8 0 11 37 119 45 132 13 21 32 -4 53 -67z m410 45 c2 -16
-1 -28 -7 -28 -6 0 -11 7 -11 15 0 8 -4 15 -10 15 -5 0 -10 -22 -10 -50 0 -27
5 -50 10 -50 6 0 10 -7 10 -15 0 -10 -10 -15 -29 -15 -31 0 -49 14 -31 25 5 3
10 30 10 58 -1 45 -2 50 -14 35 -18 -24 -26 -22 -26 5 0 33 8 38 60 35 41 -3
45 -6 48 -30z m190 4 c17 -22 15 -83 -4 -110 -34 -49 -94 -15 -94 53 0 74 57
107 98 57z m142 -1 c0 -32 13 -32 27 0 7 17 17 28 23 24 13 -8 13 -155 0 -155
-5 0 -10 19 -10 43 -1 39 -2 41 -15 23 -14 -19 -15 -19 -22 0 -6 15 -9 11 -13
-19 -8 -61 -23 -38 -21 33 1 35 5 68 7 72 8 13 24 -1 24 -21z m230 19 c0 -16
2 -21 21 -79 11 -30 19 -58 19 -63 0 -17 -22 -7 -27 12 -7 27 -49 27 -63 0 -6
-11 -15 -18 -20 -15 -9 5 25 120 43 143 11 14 27 16 27 2z m1606 -68 c21 -68
17 -106 -6 -62 -14 27 -44 25 -63 -2 -26 -40 -30 -11 -7 59 13 37 25 72 27 76
12 20 29 -5 49 -71z m-2438 4 c3 -48 6 -57 20 -54 13 2 18 16 20 61 2 40 7 57
15 54 19 -6 21 -95 2 -123 -17 -26 -53 -32 -73 -12 -17 17 -16 141 1 136 7 -3
13 -27 15 -62z m1062 39 c0 -27 -15 -34 -24 -10 -8 21 -33 19 -46 -4 -15 -28
-12 -67 5 -81 13 -10 19 -10 33 4 25 22 29 20 35 -10 3 -20 1 -24 -11 -19 -10
4 -24 -5 -38 -22 -12 -15 -26 -25 -30 -21 -4 4 -1 14 5 22 10 11 9 16 -2 23
-33 19 -47 85 -27 124 8 14 21 19 55 19 41 0 45 -2 45 -25z m181 -40 c24 -78
24 -97 0 -67 -24 27 -58 29 -66 2 -6 -20 -25 -28 -25 -11 0 5 9 39 21 76 26
84 44 84 70 0z m209 46 c15 -29 12 -83 -6 -109 -33 -48 -94 -12 -94 56 0 52
15 72 55 72 24 0 38 -6 45 -19z m400 -1 c15 -28 -4 -59 -40 -66 -21 -5 -30
-13 -32 -30 -2 -14 -7 -26 -13 -27 -6 -1 -11 29 -13 71 l-3 72 45 0 c35 0 48
-5 56 -20z m188 -52 c12 -39 20 -73 18 -76 -8 -7 -26 9 -26 24 0 22 -48 17
-60 -6 -23 -43 -27 -7 -6 60 28 94 46 93 74 -2z m210 37 c3 -19 -2 -33 -13
-41 -15 -12 -15 -14 1 -38 26 -40 6 -46 -26 -7 l-28 33 -4 -26 c-7 -55 -23
-29 -26 42 l-3 73 48 -3 c45 -3 48 -5 51 -33z m-527 -147 c16 -18 29 -36 29
-41 0 -5 17 -25 38 -45 l37 -35 -33 19 c-17 10 -35 26 -38 36 -7 24 -44 44
-44 24 0 -14 -29 -31 -38 -21 -3 3 0 5 6 5 7 0 12 9 12 21 0 11 -4 17 -10 14
-5 -3 -10 -1 -10 4 0 6 5 11 12 11 9 0 9 3 0 12 -7 7 -12 16 -12 20 0 17 23 6
51 -24z m-481 -67 c0 -5 -9 -11 -20 -14 -11 -3 -20 -1 -20 3 0 5 8 11 18 13 9
3 18 5 20 6 1 0 2 -3 2 -8z m-80 -52 l0 -31 -97 5 c-54 3 -99 6 -100 6 -1 1 0
8 4 17 4 11 9 12 16 5 19 -19 113 -14 128 7 11 14 11 15 -1 5 -15 -14 -34 -18
-27 -5 3 4 -23 8 -56 9 -47 1 -67 -3 -82 -16 -37 -33 -50 -35 -21 -3 30 32 30
32 133 32 l103 0 0 -31z m-1285 -89 c21 -22 43 -40 47 -40 4 0 8 18 8 40 l0
40 60 0 60 0 0 -135 0 -135 -35 0 c-20 0 -47 -8 -62 -17 -17 -12 -25 -13 -22
-4 4 10 -105 131 -118 131 -8 0 -2 -37 8 -47 8 -8 7 -16 -2 -31 -10 -16 -10
-31 -2 -69 7 -29 8 -52 2 -58 -5 -5 -9 -19 -9 -32 0 -13 -5 -23 -11 -23 -6 0
-9 -10 -7 -22 3 -20 9 -23 48 -24 25 -1 47 -3 50 -4 3 -1 16 -3 28 -4 13 -2
27 -8 32 -15 5 -9 10 -10 14 -2 4 6 3 11 -1 11 -5 0 -9 9 -10 20 -3 31 13 24
53 -25 38 -45 47 -48 104 -28 8 3 104 4 214 3 l199 -1 35 -27 36 -27 -33 -3
c-27 -3 -32 -7 -29 -25 3 -19 8 -21 51 -18 74 4 77 -2 75 -143 l-2 -121 -6
119 c-3 83 -9 121 -17 124 -17 5 -17 -15 0 -21 9 -3 9 -9 0 -25 -6 -11 -9 -23
-6 -26 12 -12 14 -86 3 -86 -6 0 -10 -6 -9 -12 3 -18 -11 -48 -22 -48 -5 0 -8
3 -8 8 4 25 -4 33 -12 12 -7 -16 -7 -26 0 -28 13 -4 3 -54 -15 -72 -14 -13
-15 -10 -12 38 3 53 -5 69 -17 32 -4 -11 -11 -18 -16 -15 -5 4 -9 -1 -9 -10 0
-9 4 -14 9 -11 11 7 9 -36 -4 -79 -9 -31 -51 -75 -72 -75 -7 0 -13 -4 -13 -8
0 -5 -7 -17 -16 -28 -8 -10 -12 -13 -8 -5 4 9 3 12 -4 7 -6 -3 -17 -20 -26
-36 -16 -34 -13 -36 69 -43 22 -2 -14 -4 -80 -5 l-120 -2 -67 67 -68 66 0 147
0 147 90 2 90 2 0 -126 0 -126 96 3 c90 3 98 5 113 28 9 13 11 21 5 17 -16 -9
-24 47 -24 161 l0 92 -185 0 -185 0 0 74 c0 41 -4 77 -9 80 -5 4 -11 2 -13 -2
-1 -4 -22 -4 -46 1 -23 4 -40 12 -37 16 2 5 -2 14 -10 21 -10 9 -15 9 -15 1 0
-6 -7 -11 -15 -11 -7 0 -18 -8 -24 -17 -5 -10 -13 -15 -17 -11 -4 4 -1 14 5
22 18 22 -4 31 -74 30 -44 -1 -63 3 -72 15 -6 9 -9 19 -7 23 3 4 -4 13 -16 20
-16 11 -20 24 -21 73 0 41 -3 54 -9 40 -4 -11 -6 -39 -4 -62 3 -38 1 -43 -17
-43 -20 0 -21 4 -18 165 l3 165 21 -20 c19 -17 35 -20 129 -20 75 0 105 -3
100 -11 -3 -6 -22 -9 -40 -7 -19 2 -34 0 -34 -4 0 -4 18 -8 39 -8 l40 0 4 -52
c3 -43 4 -38 5 25 l2 77 -108 0 c-105 0 -109 1 -135 28 -25 26 -26 30 -12 49
14 19 13 22 -2 26 -10 3 16 5 57 6 76 1 76 1 115 -39z m575 -14 l0 -55 -157
-3 c-171 -3 -193 -1 -193 15 0 6 19 31 42 54 l42 43 133 0 133 0 0 -54z m387
17 c0 -21 -6 -41 -11 -45 -7 -5 -6 -11 4 -18 10 -7 -42 -10 -162 -10 -133 0
-178 3 -178 12 0 7 19 32 42 55 l42 43 132 0 132 0 -1 -37z m371 -6 c31 -32
43 -51 42 -73 0 -16 1 -40 1 -54 1 -14 1 -76 0 -138 l-1 -113 -136 3 -137 3
-1 37 -1 37 55 3 c37 2 54 7 53 16 -2 7 8 12 25 12 l27 0 3 100 3 100 -120 0
c-79 0 -121 4 -121 11 0 5 5 7 10 4 6 -4 17 -1 25 5 12 10 15 10 15 0 0 -15
30 3 79 49 29 28 31 31 12 31 -12 0 -21 -6 -21 -15 0 -8 -4 -15 -10 -15 -5 0
-7 7 -4 14 5 12 -7 16 -53 19 -32 2 3 4 77 5 l136 2 42 -43z m440 -13 l-3 -56
-170 0 c-123 1 -171 4 -174 13 -2 7 1 9 8 5 7 -5 11 1 11 16 0 12 12 34 28 49
27 26 29 27 165 28 l138 1 -3 -56z m162 1 l0 -55 -58 0 -59 0 -2 55 -2 55 61
0 60 0 0 -55z m330 45 c0 -5 -13 -10 -30 -10 -31 0 -37 -14 -32 -72 2 -16 -10
-18 -108 -18 l-110 0 0 55 0 55 140 0 c87 0 140 -4 140 -10z m472 -45 c-4 -60
-19 -74 -24 -22 l-3 32 -115 5 c-63 3 -121 9 -128 13 -30 20 8 27 136 27 l137
0 -3 -55z m-1672 15 c0 -5 -2 -10 -4 -10 -3 0 -8 5 -11 10 -3 6 -1 10 4 10 6
0 11 -4 11 -10z m1406 -5 c14 -10 47 -14 122 -15 l102 0 0 -25 0 -25 -155 0
c-88 0 -155 4 -155 9 0 12 49 71 59 71 4 0 16 -7 27 -15z m-135 -115 c3 -47 3
-125 1 -175 l-5 -90 -57 0 -58 0 2 178 1 178 55 -3 55 -3 6 -85z m-845 0 l44
0 0 -75 0 -75 40 0 41 0 -3 -57 -3 -57 -55 3 c-48 2 -60 7 -92 39 l-37 37 -4
98 c-2 80 -1 97 11 92 7 -3 34 -5 58 -5z m439 -129 l0 -134 -53 0 c-29 0 -55
3 -58 6 -6 6 -6 246 0 256 2 3 28 6 58 5 l53 0 0 -133z m87 87 l1 -53 6 50 c6
49 6 50 41 50 l35 0 3 -77 3 -78 50 0 50 0 -3 -56 -3 -56 -63 -1 c-61 -1 -63
0 -107 43 l-45 44 0 93 c0 76 3 93 15 93 11 0 15 -13 17 -52z m678 -5 c0 -28
5 -55 10 -58 6 -4 10 17 10 55 0 45 3 61 13 57 17 -5 16 -182 -1 -199 -9 -9
-12 -3 -12 30 0 23 -4 42 -10 42 -5 0 -10 -24 -10 -53 0 -81 -8 -86 -170 -88
l-135 -1 0 56 0 56 118 0 c110 0 117 1 117 20 0 19 -7 20 -120 20 l-120 0 0
53 c0 30 2 56 4 58 2 2 72 4 155 4 l151 0 0 -52z m-2240 32 c0 -11 -11 -15
-36 -15 -31 0 -35 -3 -32 -22 2 -13 9 -24 16 -24 6 -1 21 -2 32 -3 11 0 20 -8
20 -16 0 -12 -13 -15 -60 -15 -53 0 -60 -2 -60 -20 0 -15 7 -20 25 -20 24 0
25 -3 25 -58 l0 -58 -40 1 c-32 0 -47 8 -80 40 l-40 39 0 93 0 93 115 0 c96 0
115 -3 115 -15z m180 -81 c0 -61 -4 -93 -10 -89 -5 3 -10 46 -10 96 0 53 4 89
10 89 6 0 10 -39 10 -96z m147 14 c-2 -18 -4 -6 -4 27 0 33 2 48 4 33 2 -15 2
-42 0 -60z m183 -48 l0 -130 -132 0 c-130 0 -132 0 -160 27 -27 25 -28 31 -28
115 l0 88 40 0 40 0 0 -60 0 -60 68 0 c61 -1 65 -2 48 -15 -11 -8 -16 -15 -12
-15 5 0 3 -8 -4 -17 -7 -10 -1 -6 13 9 33 35 27 78 -12 78 -25 0 -26 2 -26 55
l0 55 83 0 82 0 0 -130z m150 120 c-14 -4 -19 -8 -12 -9 7 -1 13 -19 14 -48
l1 -48 7 50 7 50 1 -57 c2 -52 0 -57 -18 -53 -12 2 -23 -2 -27 -10 -3 -8 -9
-15 -15 -15 -5 0 -6 5 -3 10 3 6 1 10 -4 10 -13 0 -14 -17 -2 -24 5 -3 11 -22
13 -41 l4 -35 -28 27 c-15 15 -28 36 -28 47 0 10 3 17 6 14 8 -9 54 41 65 70
7 17 6 29 -1 36 -7 6 -10 7 -9 1 5 -21 -13 -61 -37 -78 -13 -10 -24 -14 -24
-10 0 5 9 14 21 21 20 13 21 23 3 66 -5 14 -4 17 4 12 7 -4 18 -4 25 1 8 5 0
10 -23 14 -28 5 -22 6 25 7 44 0 53 -2 35 -8z m-83 -42 c-3 -7 -5 -2 -5 12 0
14 2 19 5 13 2 -7 2 -19 0 -25z m-957 -152 c0 -30 -4 -58 -10 -61 -6 -4 -10
17 -10 54 0 34 4 61 10 61 6 0 10 -24 10 -54z m100 0 c0 -59 -7 -66 -57 -59
-33 5 -33 6 -33 59 l0 54 45 0 45 0 0 -54z m370 4 c0 -66 18 -64 23 3 l3 52 2
-57 2 -57 -86 -3 c-47 -2 -87 -2 -88 -1 0 1 0 22 2 47 4 45 5 46 41 47 l36 2
-40 7 c-34 6 -30 7 33 9 l72 1 0 -50z m1232 13 c7 -58 0 -72 -41 -79 -20 -4
-39 -12 -43 -18 -6 -8 -10 -8 -15 0 -5 7 -17 13 -28 15 -16 3 -21 13 -23 47
l-3 42 55 0 c43 0 56 3 56 15 0 8 9 15 19 15 14 0 20 -9 23 -37z m-90 -135
c-7 -7 -12 -8 -12 -2 0 6 3 14 7 17 3 4 9 5 12 2 2 -3 -1 -11 -7 -17z m271
-96 c61 -60 67 -70 67 -106 l0 -40 -68 67 -68 67 -132 0 c-130 0 -132 0 -132
23 0 24 -51 60 -73 51 -19 -9 -64 -67 -72 -94 l-7 -25 29 28 c22 20 39 27 70
27 23 0 43 -5 45 -11 3 -8 46 -11 134 -10 l131 2 70 -65 70 -65 1 -221 0 -220
-94 0 -94 0 -2 103 c0 56 -1 110 0 119 1 14 -9 18 -61 20 l-62 3 0 90 0 90 63
3 c58 3 62 4 62 27 0 25 -1 25 -90 25 l-90 0 -2 -102 c-1 -57 -1 -165 1 -240
l4 -138 -98 0 -98 0 5 133 c2 72 3 140 0 150 -5 24 -22 22 -22 -3 0 -24 -22
-26 -54 -5 -27 18 -50 4 -59 -35 -5 -22 -1 -27 33 -42 l40 -17 0 -90 0 -91
-207 0 -207 0 -68 67 c-38 37 -68 74 -67 83 0 10 4 7 11 -7 6 -13 15 -23 20
-23 5 0 6 6 1 13 -4 6 -9 21 -10 32 -2 11 -8 47 -13 80 -5 33 -10 88 -10 123
l0 63 90 -3 90 -3 0 -55 0 -56 -40 4 -40 4 0 -93 c1 -71 3 -90 11 -76 6 10 9
41 7 68 l-3 49 34 0 c25 0 32 -3 27 -15 -3 -8 -3 -29 1 -45 l6 -30 158 0 c99
0 159 4 159 10 0 6 -9 10 -20 10 -24 0 -37 27 -21 43 6 6 11 19 11 28 0 19 34
31 67 23 14 -4 34 1 49 11 25 16 26 21 21 73 -4 34 -12 61 -22 68 -8 6 -15 17
-15 24 0 10 3 10 15 0 13 -11 14 -10 9 4 -3 9 -1 23 6 31 7 8 10 21 7 30 -4 8
-2 17 3 20 6 4 10 13 10 21 0 8 17 32 38 54 l37 40 170 -6 170 -6 68 -66z
m187 46 c0 -17 6 -19 58 -16 51 3 57 6 60 26 2 12 8 20 13 17 5 -4 9 -46 9
-96 l0 -89 -95 0 -95 0 0 88 c0 49 3 91 6 94 12 12 44 -5 44 -24z m558 -21
c45 -44 51 -47 97 -45 39 1 42 2 15 5 -65 7 -82 13 -76 29 3 9 2 12 -5 9 -8
-6 -59 37 -59 49 0 2 52 5 115 5 l115 2 0 -46 c0 -42 -2 -45 -27 -46 l-28 -1
30 -7 c28 -6 30 -9 27 -46 -2 -22 -5 -41 -6 -42 -2 -2 -211 -4 -403 -4 l-143
1 0 28 c0 22 15 43 68 94 l67 64 82 0 82 -1 49 -48z m-1298 -47 l0 -90 -275 0
-275 0 0 28 c0 19 11 39 35 62 l35 34 28 -27 c27 -26 33 -27 135 -27 65 0 107
4 107 10 0 6 -43 10 -108 10 -101 0 -110 2 -131 24 l-22 24 28 20 c26 20 41
21 236 22 l207 0 0 -90z m876 -335 c1 -104 2 -194 4 -200 8 -32 -1 -35 -94
-35 l-94 0 0 208 c1 114 3 211 5 215 3 4 44 6 91 5 l87 -3 1 -190z m344 175
c0 -18 7 -20 56 -20 48 0 57 3 61 20 5 19 12 21 86 18 l80 -3 -2 -149 -2 -150
-67 -63 -67 -62 -79 -1 -79 0 5 85 4 85 -48 0 c-44 0 -61 -11 -39 -25 6 -3 4
-17 -5 -33 -7 -15 -14 -32 -14 -39 0 -6 -9 -9 -22 -5 -17 4 -20 2 -15 -12 4
-10 7 -24 7 -32 0 -12 12 -15 55 -13 30 1 58 -1 62 -4 3 -4 -51 -7 -120 -7
l-127 0 0 90 c0 83 2 90 20 91 11 1 25 3 30 4 6 1 15 3 21 4 8 1 8 6 -1 16 -9
10 -9 15 -1 15 6 0 11 5 11 10 0 14 -33 12 -49 -2 -11 -11 -13 -10 -7 0 4 7 1
15 -8 18 -13 5 -16 24 -16 95 l0 89 135 0 c128 0 135 -1 135 -20z m-1843 -373
c-2 -23 -3 -1 -3 48 0 50 1 68 3 42 2 -26 2 -67 0 -90z m-117 109 c0 -3 -4 -8
-10 -11 -5 -3 -10 -1 -10 4 0 6 5 11 10 11 6 0 10 -2 10 -4z m9 -101 c1 -30 4
-36 11 -25 6 9 10 10 10 3 0 -6 15 -14 33 -16 21 -2 13 -4 -23 -5 l-55 -2 2
57 c2 72 2 72 13 48 5 -11 9 -38 9 -60z m-389 -25 c0 -5 -5 -10 -11 -10 -5 0
-7 5 -4 10 3 6 8 10 11 10 2 0 4 -4 4 -10z m-185 -50 c3 -5 1 -10 -4 -10 -6 0
-11 5 -11 10 0 6 2 10 4 10 3 0 8 -4 11 -10z m-159 -57 c-3 -3 -12 -3 -21 1
-13 5 -14 8 -3 20 11 12 14 12 21 -1 5 -8 6 -17 3 -20z m176 -13 c4 0 8 -7 8
-16 0 -12 -5 -14 -17 -9 -10 4 -33 13 -52 20 l-33 12 31 11 c17 6 31 17 32 24
1 7 6 1 12 -14 6 -16 14 -28 19 -28z m278 36 c0 -11 -19 -15 -25 -6 -3 5 1 10
9 10 9 0 16 -2 16 -4z m-406 -35 c-2 -3 -12 3 -22 13 -16 17 -16 18 5 5 12 -7
20 -15 17 -18z m286 25 c0 -3 -4 -8 -10 -11 -5 -3 -10 -1 -10 4 0 6 5 11 10
11 6 0 10 -2 10 -4z"/>
<path d="M420 2550 c0 -5 5 -10 11 -10 5 0 7 5 4 10 -3 6 -8 10 -11 10 -2 0
-4 -4 -4 -10z"/>
<path d="M1002 2588 c-28 -28 -2 -108 31 -95 22 8 32 53 18 83 -12 26 -30 31
-49 12z"/>
<path d="M1417 2574 c-13 -13 -7 -44 8 -44 16 0 17 5 6 33 -3 10 -10 15 -14
11z"/>
<path d="M3000 2550 c0 -11 5 -20 10 -20 6 0 10 9 10 20 0 11 -4 20 -10 20 -5
0 -10 -9 -10 -20z"/>
<path d="M1810 2573 c0 -6 -3 -18 -6 -27 -4 -11 -1 -16 10 -16 9 0 16 6 16 13
0 16 -20 46 -20 30z"/>
<path d="M1992 2588 c-15 -15 -16 -60 0 -76 18 -18 46 -15 52 6 8 25 -8 77
-25 80 -8 1 -20 -3 -27 -10z"/>
<path d="M2390 2575 c0 -26 7 -29 34 -19 27 10 20 44 -9 44 -20 0 -25 -5 -25
-25z"/>
<path d="M2598 2555 c-4 -20 -1 -25 14 -25 14 0 18 5 14 16 -3 9 -6 20 -6 25
0 20 -18 7 -22 -16z"/>
<path d="M2790 2580 c0 -16 5 -21 23 -18 12 2 22 10 22 18 0 8 -10 16 -22 18
-18 3 -23 -2 -23 -18z"/>
<path d="M1220 1521 c0 -6 4 -13 10 -16 6 -3 7 1 4 9 -7 18 -14 21 -14 7z"/>
<path d="M753 1470 c0 -25 2 -35 4 -22 2 12 2 32 0 45 -2 12 -4 2 -4 -23z"/>
<path d="M1163 1472 c0 -22 4 -29 10 -23 7 7 7 18 0 33 -9 20 -10 20 -10 -10z"/>
<path d="M1090 1268 c-12 -22 -12 -22 6 -6 10 10 15 20 12 24 -4 3 -12 -5 -18
-18z"/>
<path d="M1035 1259 c-11 -17 -2 -18 19 -3 17 12 17 14 4 14 -9 0 -20 -5 -23
-11z"/>
<path d="M738 2173 c6 -2 18 -2 25 0 6 3 1 5 -13 5 -14 0 -19 -2 -12 -5z"/>
<path d="M1386 2251 c-3 -5 7 -13 22 -19 24 -8 28 -7 28 9 0 20 -40 28 -50 10z"/>
<path d="M1611 2191 c-9 -6 -10 -11 -2 -15 13 -8 31 1 31 15 0 11 -11 11 -29
0z"/>
<path d="M1790 2180 c0 -5 5 -10 10 -10 6 0 10 5 10 10 0 6 -4 10 -10 10 -5 0
-10 -4 -10 -10z"/>
<path d="M1790 2130 c0 -5 5 -10 10 -10 6 0 10 5 10 10 0 6 -4 10 -10 10 -5 0
-10 -4 -10 -10z"/>
<path d="M1795 2090 c-3 -5 -1 -10 4 -10 6 0 11 5 11 10 0 6 -2 10 -4 10 -3 0
-8 -4 -11 -10z"/>
<path d="M1790 1940 c0 -5 5 -10 10 -10 6 0 10 5 10 10 0 6 -4 10 -10 10 -5 0
-10 -4 -10 -10z"/>
<path d="M2188 2173 c12 -2 32 -2 45 0 12 2 2 4 -23 4 -25 0 -35 -2 -22 -4z"/>
<path d="M2900 2180 c0 -5 7 -10 15 -10 8 0 15 5 15 10 0 6 -7 10 -15 10 -8 0
-15 -4 -15 -10z"/>
<path d="M2710 1876 c0 -2 16 -6 35 -8 19 -2 35 0 35 4 0 4 -16 8 -35 8 -19 0
-35 -2 -35 -4z"/>
<path d="M1930 1940 c0 -5 6 -10 14 -10 8 0 18 5 21 10 3 6 -3 10 -14 10 -12
0 -21 -4 -21 -10z"/>
<path d="M1360 2089 c0 -5 4 -8 9 -5 21 13 17 -21 -6 -45 -19 -21 -22 -30 -14
-50 7 -16 10 -19 10 -7 1 9 6 20 12 24 8 5 10 -1 6 -18 -4 -14 -4 -28 0 -32
10 -10 13 -37 3 -31 -4 3 -10 -2 -14 -10 -3 -8 0 -15 6 -15 7 0 6 -5 -2 -15
-7 -9 -10 -18 -8 -21 12 -11 48 49 43 73 -3 20 -1 22 10 13 8 -6 16 -24 18
-38 2 -15 5 21 6 81 1 72 -3 107 -10 107 -6 0 -9 -6 -6 -14 8 -19 -30 -66 -51
-66 -14 1 -14 3 4 18 11 10 23 27 26 40 5 18 2 22 -18 22 -13 0 -24 -5 -24
-11z m60 -78 c-12 -23 -30 -36 -30 -22 0 10 27 41 36 41 3 0 0 -9 -6 -19z"/>
<path d="M1395 1870 c-3 -5 -1 -10 4 -10 6 0 11 5 11 10 0 6 -2 10 -4 10 -3 0
-8 -4 -11 -10z"/>
<path d="M1350 1458 c1 -36 4 -48 9 -38 5 8 8 30 7 48 -2 25 1 31 13 28 9 -3
32 -1 51 3 32 8 31 9 -22 10 l-58 1 0 -52z"/>
<path d="M1983 1330 c0 -47 2 -66 4 -42 2 23 2 61 0 85 -2 23 -4 4 -4 -43z"/>
<path d="M1365 1390 c-3 -5 1 -10 9 -10 9 0 16 5 16 10 0 6 -4 10 -9 10 -6 0
-13 -4 -16 -10z"/>
<path d="M1371 1361 c-8 -5 -9 -11 -3 -15 5 -3 12 1 16 9 6 17 6 18 -13 6z"/>
<path d="M2223 1363 c9 -2 23 -2 30 0 6 3 -1 5 -18 5 -16 0 -22 -2 -12 -5z"/>
<path d="M2410 1350 c0 -5 5 -10 10 -10 6 0 10 5 10 10 0 6 -4 10 -10 10 -5 0
-10 -4 -10 -10z"/>
<path d="M2410 1310 c0 -5 5 -10 10 -10 6 0 10 5 10 10 0 6 -4 10 -10 10 -5 0
-10 -4 -10 -10z"/>
<path d="M2410 1270 c0 -5 5 -10 10 -10 6 0 10 5 10 10 0 6 -4 10 -10 10 -5 0
-10 -4 -10 -10z"/>
<path d="M3246 1737 c6 -15 34 -19 34 -4 0 5 7 7 15 4 8 -4 17 -2 20 3 4 6
-11 10 -34 10 -30 0 -39 -4 -35 -13z"/>
<path d="M3338 1743 c7 -3 16 -2 19 1 4 3 -2 6 -13 5 -11 0 -14 -3 -6 -6z"/>
<path d="M3160 1703 c0 -5 4 -14 9 -21 7 -11 9 -11 14 1 3 8 3 18 0 21 -9 8
-23 7 -23 -1z"/>
<path d="M3191 1666 c-9 -10 -9 -20 0 -40 15 -32 21 -32 35 -1 10 20 9 27 -6
40 -15 13 -19 13 -29 1z m29 -20 c0 -3 -4 -8 -10 -11 -5 -3 -10 -1 -10 4 0 6
5 11 10 11 6 0 10 -2 10 -4z"/>
<path d="M3247 1643 c-10 -10 -8 -43 2 -43 6 0 13 5 17 12 4 6 3 8 -4 5 -6 -5
-8 0 -5 13 5 20 2 25 -10 13z"/>
<path d="M3299 1648 c-1 -2 -3 -13 -4 -25 -2 -16 3 -23 15 -23 9 0 17 7 17 15
0 8 -4 15 -9 15 -5 0 -6 5 -3 10 3 6 1 10 -4 10 -6 0 -12 -1 -12 -2z"/>
<path d="M1450 1725 c-7 -8 -8 -15 -2 -15 5 0 15 7 22 15 7 8 8 15 2 15 -5 0
-15 -7 -22 -15z"/>
<path d="M1377 1652 c-15 -15 -27 -37 -26 -48 0 -17 1 -16 9 4 5 12 22 34 37
47 16 13 23 25 17 25 -5 0 -22 -13 -37 -28z"/>
<path d="M3087 1485 c3 -13 1 -38 -5 -54 -8 -23 -7 -31 4 -35 11 -4 14 7 14
54 0 33 -4 60 -9 60 -4 0 -6 -11 -4 -25z"/>
<path d="M3236 1495 c-3 -9 0 -15 9 -15 8 0 15 7 15 15 0 8 -4 15 -9 15 -5 0
-11 -7 -15 -15z"/>
<path d="M3124 1465 c-4 -8 -3 -26 0 -40 5 -20 1 -27 -26 -41 -30 -16 -31 -18
-13 -25 18 -7 18 -8 -5 -8 -14 -1 -31 -5 -39 -10 -7 -5 -26 -4 -44 3 -23 8
-31 8 -34 -1 -2 -7 -10 -10 -17 -7 -15 6 -16 -37 -1 -48 16 -12 63 -9 71 4 5
8 2 9 -9 5 -10 -3 -17 -2 -17 3 0 6 9 10 20 10 11 0 20 -7 20 -15 0 -13 15
-15 93 -13 l92 3 3 40 c4 41 17 58 40 50 8 -3 10 0 5 8 -4 6 -8 26 -8 42 0 27
-4 30 -32 33 -18 2 -33 7 -33 13 0 15 -60 10 -66 -6z m64 -97 c5 17 19 15 19
-3 0 -11 -12 -15 -46 -14 -25 0 -40 3 -33 6 6 2 10 9 6 14 -3 5 7 4 22 -3 22
-10 28 -10 32 0z"/>
<path d="M3235 1350 c-3 -5 -1 -10 4 -10 6 0 11 5 11 10 0 6 -2 10 -4 10 -3 0
-8 -4 -11 -10z"/>
<path d="M3122 1190 l0 -80 34 0 c34 0 38 6 34 44 -1 11 3 15 9 12 6 -4 11 -2
11 3 0 6 -4 11 -10 11 -5 0 -10 19 -10 43 0 31 3 38 10 27 8 -13 10 -12 10 3
0 14 -9 17 -44 17 l-45 0 1 -80z m50 8 c-8 -8 -9 -4 -5 13 4 13 8 18 11 10 2
-7 -1 -18 -6 -23z"/>
<path d="M2940 1120 c0 -5 5 -10 10 -10 6 0 10 5 10 10 0 6 -4 10 -10 10 -5 0
-10 -4 -10 -10z"/>
<path d="M6 1884 c-14 -102 -3 -299 25 -457 12 -64 14 -68 36 -64 15 3 22 0
20 -7 -2 -6 -12 -10 -22 -8 -15 3 -16 -1 -10 -25 3 -15 8 -29 9 -31 2 -1 17
11 35 27 36 34 43 77 11 68 -11 -3 -20 -1 -20 4 0 5 5 9 12 9 9 0 9 3 0 12
-18 18 -14 30 8 23 19 -6 20 -2 20 163 l0 169 23 -4 c14 -3 29 2 37 12 11 14
7 22 -33 61 -30 29 -44 50 -40 60 5 13 0 14 -31 9 -27 -6 -41 -3 -55 9 -17 16
-19 14 -25 -30z m139 -102 c-1 -1 -10 0 -19 4 -10 4 -16 18 -16 37 l0 32 19
-35 c10 -19 18 -36 16 -38z"/>
<path d="M200 1720 c0 -18 7 -20 55 -20 l55 0 0 -52 0 -53 20 25 c20 25 28 96
11 85 -6 -3 -15 4 -21 15 -9 16 -21 20 -65 20 -48 0 -55 -2 -55 -20z"/>
<path d="M140 1679 c0 -5 5 -7 10 -4 6 3 10 8 10 11 0 2 -4 4 -10 4 -5 0 -10
-5 -10 -11z"/>
<path d="M141 1634 c0 -11 3 -14 6 -6 3 7 2 16 -1 19 -3 4 -6 -2 -5 -13z"/>
<path d="M140 1590 c0 -5 5 -10 11 -10 5 0 7 5 4 10 -3 6 -8 10 -11 10 -2 0
-4 -4 -4 -10z"/>
<path d="M248 1373 c6 -2 18 -2 25 0 6 3 1 5 -13 5 -14 0 -19 -2 -12 -5z"/>
<path d="M136 1305 c-3 -9 0 -15 9 -15 16 0 20 16 6 24 -5 3 -11 -1 -15 -9z"/>
<path d="M105 1270 c3 -5 10 -10 16 -10 5 0 9 5 9 10 0 6 -7 10 -16 10 -8 0
-12 -4 -9 -10z"/>
<path d="M246 1224 c4 -38 14 -42 14 -6 0 18 -4 32 -9 32 -4 0 -7 -12 -5 -26z"/>
<path d="M400 1193 c125 -4 125 -4 160 -36 l35 -32 -34 38 -35 37 -125 -2
-126 -2 125 -3z"/>
</g>
</svg>
